<?xml version="1.0" standalone="no"?>
<!DOCTYPE svg PUBLIC "-//W3C//DTD SVG 20010904//EN"
 "http://www.w3.org/TR/2001/REC-SVG-20010904/DTD/svg10.dtd">
<svg version="1.0" xmlns="http://www.w3.org/2000/svg"
 width="2392.000000pt" height="1342.000000pt" viewBox="0 0 2392.000000 1342.000000"
 preserveAspectRatio="xMidYMid meet">

<g transform="translate(0.000000,1342.000000) scale(0.100000,-0.100000)"
fill="#000000" stroke="none">
<path d="M18195 9200 c-20 -13 -47 -20 -78 -20 -60 0 -109 -26 -105 -55 2 -14
12 -21 35 -23 17 -2 37 -10 44 -18 17 -21 15 -294 -3 -306 -7 -4 -41 -8 -75
-8 -40 0 -67 -5 -76 -15 -8 -7 -26 -17 -40 -20 -15 -4 -31 -13 -38 -21 -6 -8
-16 -14 -21 -14 -6 0 -32 -18 -59 -41 -52 -43 -129 -177 -129 -223 0 -13 -7
-41 -16 -62 -16 -38 -16 -45 5 -161 13 -72 66 -180 99 -201 15 -9 36 -25 47
-35 28 -25 58 -31 123 -23 43 5 64 14 87 35 16 15 37 31 46 34 20 7 39 -10 39
-34 0 -26 41 -31 83 -9 21 11 54 20 75 20 80 0 117 72 40 78 -20 2 -39 9 -42
17 -3 8 0 162 5 342 6 180 12 429 13 553 1 248 1 250 -59 210z m-171 -520 c25
0 36 -7 50 -30 15 -27 17 -55 16 -228 -1 -240 -10 -320 -35 -338 -11 -8 -43
-14 -74 -14 -48 0 -60 4 -87 29 -55 52 -82 124 -85 226 -3 108 9 220 27 255
35 69 99 115 142 104 8 -2 28 -4 46 -4z"/>
<path d="M17405 9190 c-21 -14 -47 -20 -85 -20 -43 0 -61 -5 -85 -24 -25 -21
-28 -28 -19 -43 7 -11 25 -19 47 -21 23 -2 37 -9 39 -19 2 -8 1 -81 -2 -162
l-5 -146 -69 -3 c-40 -2 -78 -9 -90 -17 -11 -8 -28 -15 -37 -15 -9 0 -37 -16
-62 -35 -25 -19 -50 -35 -56 -35 -27 0 -131 -175 -131 -220 0 -14 -7 -35 -15
-46 -17 -22 -21 -169 -5 -179 6 -3 10 -26 10 -50 0 -24 4 -47 10 -50 5 -3 18
-25 28 -48 11 -23 28 -50 38 -59 67 -61 91 -75 141 -81 66 -8 109 5 149 44 39
38 67 36 74 -6 5 -27 8 -30 39 -27 19 2 51 12 70 23 20 10 52 19 73 19 24 0
46 8 63 23 35 29 25 57 -20 57 -18 0 -37 6 -43 13 -6 8 -6 123 0 347 5 184 10
439 11 565 2 223 1 230 -18 233 -11 1 -33 -7 -50 -18z m-124 -560 c16 -23 17
-45 9 -288 -9 -308 -7 -302 -100 -302 -39 0 -62 5 -70 15 -7 8 -18 15 -25 15
-23 0 -75 109 -75 155 0 22 -5 46 -11 52 -14 14 -6 139 13 213 38 144 83 184
196 170 33 -4 50 -12 63 -30z"/>
<path d="M15750 9166 c-9 -11 -30 -16 -71 -16 -51 0 -63 -4 -91 -29 -27 -25
-31 -33 -22 -48 6 -10 24 -19 40 -21 16 -2 32 -7 36 -10 4 -4 3 -259 -2 -567
-5 -364 -5 -564 2 -572 5 -6 16 -9 24 -6 8 3 26 -3 41 -12 47 -31 317 -22 330
11 3 8 12 14 21 14 9 0 25 9 37 20 11 11 37 33 57 50 20 17 40 41 44 53 4 12
17 38 29 57 43 70 54 119 55 245 1 106 -1 128 -24 188 -25 68 -71 135 -92 136
-6 1 -17 8 -24 16 -7 8 -21 15 -32 15 -10 0 -21 7 -24 15 -8 20 -121 20 -148
0 -11 -8 -28 -15 -38 -15 -9 0 -26 -9 -36 -20 -12 -13 -25 -18 -36 -14 -17 6
-18 26 -14 263 l3 256 -26 3 c-14 2 -31 -4 -39 -12z m279 -623 c28 -32 51 -68
51 -80 0 -12 5 -25 10 -28 17 -10 13 -308 -5 -342 -8 -15 -17 -40 -20 -55 -3
-15 -22 -46 -44 -68 -34 -36 -43 -40 -88 -40 -45 0 -52 3 -79 37 -49 62 -54
90 -53 318 0 116 4 230 7 255 l7 45 65 6 c36 3 73 6 82 7 9 1 39 -24 67 -55z"/>
<path d="M16530 9098 c-15 -6 -35 -30 -48 -57 l-23 -47 20 -46 c24 -57 59 -82
100 -73 32 7 51 25 75 72 21 42 20 61 -4 110 -15 31 -26 42 -51 47 -37 7 -36
7 -69 -6z"/>
<path d="M13420 9040 l-185 -5 -3 -27 c-2 -16 0 -28 5 -29 4 0 20 -2 36 -3 15
-1 40 -14 55 -29 l27 -27 -2 -423 c-3 -498 -9 -627 -29 -627 -8 0 -23 -9 -33
-19 -11 -11 -30 -21 -43 -23 -18 -2 -23 -9 -23 -33 l0 -30 125 4 c69 2 179 6
245 10 l120 6 0 30 c0 27 -4 30 -35 33 -19 2 -39 10 -43 18 -4 8 -19 14 -32
14 -19 0 -25 5 -25 23 0 13 -7 32 -15 43 -11 15 -14 57 -15 204 0 102 4 190 8
196 4 7 62 13 143 17 l136 6 21 -29 c14 -18 22 -44 22 -69 0 -52 8 -71 30 -71
37 0 41 21 38 231 -3 179 -5 204 -19 207 -28 5 -49 -26 -49 -73 0 -34 -6 -50
-29 -74 l-29 -31 -131 0 c-118 0 -131 2 -132 18 0 9 0 116 1 237 1 155 5 222
13 227 22 14 121 21 208 15 86 -5 88 -6 123 -44 19 -21 36 -48 36 -60 0 -12 6
-28 14 -36 8 -7 16 -25 18 -38 2 -18 9 -24 28 -24 l25 0 0 145 0 145 -210 0
c-115 1 -293 -2 -395 -5z"/>
<path d="M11170 8950 c-6 -12 -21 -20 -35 -20 -14 0 -25 -3 -25 -7 0 -5 -27
-37 -61 -73 -89 -96 -100 -125 -64 -168 3 -4 55 47 55 53 0 14 51 55 68 55 12
0 26 9 32 20 9 17 21 20 77 20 64 0 67 -1 107 -42 l41 -41 -1 -96 c0 -87 -2
-100 -27 -138 -15 -24 -34 -43 -42 -43 -8 0 -19 -9 -25 -20 -6 -11 -17 -20
-24 -20 -7 0 -21 -9 -31 -20 -10 -11 -27 -20 -38 -20 -29 0 -67 -41 -67 -72 0
-34 16 -36 67 -8 46 24 71 25 94 4 10 -9 31 -17 47 -18 35 -2 112 -79 112
-112 0 -12 7 -24 15 -28 12 -4 15 -26 15 -110 0 -83 -3 -105 -15 -110 -8 -3
-15 -15 -15 -27 0 -11 -17 -42 -37 -69 l-38 -48 -85 -4 c-74 -4 -87 -2 -99 14
-7 10 -23 18 -34 18 -12 0 -35 15 -52 34 -48 55 -127 52 -139 -6 -13 -64 -7
-84 35 -128 l42 -43 130 1 c115 1 134 3 158 21 16 12 35 21 44 21 8 0 24 9 35
20 11 11 27 20 37 20 9 0 31 18 50 40 19 22 40 40 47 40 17 0 52 40 61 70 4
14 10 27 14 30 3 3 17 20 30 38 21 31 23 45 24 153 0 97 -3 122 -16 137 -10
10 -17 25 -17 33 0 17 -50 69 -67 69 -6 0 -16 7 -23 15 -7 8 -20 15 -30 15 -9
0 -25 9 -35 20 -9 10 -27 18 -39 17 -28 -3 -30 36 -1 41 28 5 113 98 138 152
22 46 26 118 8 155 -5 11 -12 31 -15 45 -7 32 -81 110 -105 110 -10 0 -24 7
-31 15 -10 12 -37 15 -126 15 -103 0 -114 -2 -124 -20z"/>
<path d="M10335 8953 c-50 -3 -74 -8 -82 -20 -7 -9 -22 -17 -33 -18 -26 -2
-139 -124 -140 -151 0 -12 -7 -27 -15 -34 -8 -7 -15 -20 -15 -29 0 -10 -7 -26
-15 -37 -8 -10 -15 -32 -15 -48 0 -16 -10 -44 -21 -63 -21 -33 -21 -43 -17
-283 4 -216 7 -252 21 -268 10 -11 17 -35 17 -59 0 -27 6 -46 20 -58 11 -10
20 -26 20 -37 0 -10 12 -33 28 -50 39 -47 112 -118 119 -118 4 0 14 -7 24 -16
21 -19 125 -25 229 -13 l75 9 60 63 c88 92 125 139 125 160 0 10 7 28 14 40 8
12 14 37 14 55 -1 17 6 40 15 50 15 16 17 51 17 278 0 242 -1 261 -20 289 -11
17 -20 41 -20 55 0 67 -148 270 -197 270 -10 0 -24 9 -31 20 -13 21 -8 21
-177 13z m76 -79 c7 -8 25 -22 41 -30 15 -8 28 -22 28 -32 0 -10 9 -25 20 -35
14 -12 20 -29 20 -61 0 -26 6 -48 15 -56 13 -11 15 -64 15 -365 0 -301 -2
-354 -15 -365 -8 -7 -15 -27 -15 -45 0 -31 -33 -109 -64 -147 -17 -23 -136
-26 -136 -4 0 8 -7 16 -15 20 -8 3 -15 14 -15 24 0 10 -9 29 -20 42 -13 15
-20 37 -20 65 0 26 -6 48 -15 55 -22 18 -22 695 0 724 8 11 15 36 15 57 0 20
6 42 14 49 8 6 16 23 18 37 2 14 12 31 23 37 11 6 31 19 44 29 29 21 45 22 62
1z"/>
<path d="M9580 8932 c0 -4 -16 -23 -35 -42 -20 -19 -47 -58 -61 -87 -13 -28
-36 -62 -50 -75 -13 -13 -34 -43 -46 -68 -13 -25 -37 -61 -55 -80 -18 -19 -33
-40 -33 -47 0 -15 -52 -93 -79 -117 -12 -11 -21 -28 -21 -39 0 -11 -7 -27 -15
-36 -51 -52 -85 -99 -85 -116 0 -11 -15 -36 -33 -55 -48 -50 -69 -99 -65 -156
l3 -47 135 4 c74 2 180 4 235 4 l100 0 3 -127 c2 -104 0 -128 -11 -128 -8 0
-26 -9 -40 -20 -14 -11 -37 -20 -51 -20 -19 0 -27 -6 -32 -24 -11 -47 -5 -48
214 -40 114 4 214 8 222 10 8 1 27 3 43 3 23 1 27 5 27 31 0 17 -6 31 -12 31
-28 3 -35 5 -75 24 l-42 20 -3 108 c-2 59 0 116 3 125 5 13 22 18 80 22 l74 5
0 50 0 50 -73 1 c-53 0 -76 4 -83 15 -5 8 -9 186 -9 406 0 215 -3 398 -6 407
-5 12 -21 16 -65 16 -32 0 -59 -4 -59 -8z m-102 -579 c2 -160 0 -249 -7 -256
-6 -6 -80 -12 -171 -15 -135 -4 -160 -2 -165 10 -7 17 32 98 45 98 9 0 24 25
53 85 8 17 26 43 41 58 14 15 26 38 26 50 0 12 16 38 35 57 19 19 35 42 35 52
0 19 9 33 46 71 11 12 24 31 28 41 5 15 9 17 19 7 9 -9 13 -82 15 -258z"/>
<path d="M3975 8869 c-126 -3 -255 -7 -286 -8 -81 -2 -86 -24 -14 -56 91 -40
92 -40 99 -368 4 -155 11 -421 16 -590 10 -309 7 -347 -23 -347 -7 0 -35 -11
-63 -24 -27 -13 -62 -27 -77 -30 -22 -5 -28 -12 -25 -29 3 -22 6 -22 153 -22
204 1 888 24 950 33 l50 7 5 67 c3 37 11 73 18 80 6 6 12 37 12 68 0 38 6 64
20 85 11 17 20 35 20 42 0 20 -30 43 -48 36 -23 -9 -62 -53 -62 -70 0 -17 -39
-73 -62 -91 -10 -7 -18 -19 -18 -25 0 -7 -20 -33 -45 -57 l-45 -44 -197 -8
c-109 -5 -207 -6 -218 -3 -11 3 -31 22 -45 43 -23 36 -25 46 -34 290 -7 193
-6 256 3 265 8 8 64 14 154 18 142 5 142 5 200 -24 55 -27 57 -30 57 -67 0
-48 47 -103 83 -98 22 3 22 3 19 198 -4 253 -5 260 -42 260 -32 0 -53 -24 -65
-75 -9 -40 -53 -85 -83 -85 -13 0 -32 -4 -42 -10 -10 -5 -72 -13 -138 -16
-113 -6 -120 -6 -141 15 -11 11 -21 33 -21 49 0 15 -5 121 -10 237 -8 186 -7
212 8 237 22 37 65 42 272 35 l165 -6 33 -35 c17 -20 32 -44 32 -54 0 -11 9
-27 20 -37 11 -10 20 -27 20 -37 0 -49 57 -92 87 -66 23 18 12 134 -22 241
l-27 87 -207 -2 c-113 -1 -309 -5 -436 -9z"/>
<path d="M19390 8766 c-25 -18 -51 -40 -59 -49 -7 -10 -19 -17 -26 -17 -19 0
-45 34 -45 59 0 20 -4 22 -22 16 -13 -4 -39 -9 -58 -12 -19 -3 -44 -12 -55
-19 -11 -8 -27 -14 -36 -14 -9 0 -22 -6 -28 -13 -8 -11 -3 -22 24 -50 l35 -36
-5 -238 c-3 -131 -8 -252 -11 -270 -2 -17 -18 -45 -35 -61 -17 -17 -28 -35
-24 -41 12 -21 235 -9 235 12 0 6 -9 30 -21 54 -21 43 -21 49 -10 274 12 252
17 272 74 308 51 31 89 28 124 -12 50 -57 56 -101 47 -331 -9 -189 -11 -207
-32 -235 -39 -54 -32 -61 59 -61 79 0 119 10 119 31 0 6 -9 23 -21 37 -21 26
-21 33 -14 287 7 249 6 262 -14 305 -50 112 -118 137 -201 76z"/>
<path d="M18616 8740 c-77 -52 -108 -91 -149 -187 -62 -146 -67 -299 -14 -423
52 -121 139 -167 266 -139 53 11 141 80 167 130 18 36 9 57 -14 36 -23 -20
-102 -57 -123 -57 -26 0 -84 27 -117 55 -18 15 -40 49 -51 81 -23 61 -28 158
-8 171 6 4 68 13 137 19 69 6 143 18 165 27 39 15 40 16 49 80 7 59 6 70 -15
112 -44 89 -108 135 -184 134 -41 0 -61 -7 -109 -39z m105 -21 c11 -5 33 -28
49 -51 24 -33 30 -51 30 -93 0 -28 -5 -56 -12 -63 -18 -18 -202 -16 -217 2
-22 26 45 164 96 197 33 22 29 22 54 8z"/>
<path d="M16614 8719 c-12 -13 -30 -19 -59 -19 -26 0 -48 -6 -55 -15 -7 -8
-27 -15 -44 -15 -57 0 -77 -44 -27 -61 53 -19 55 -33 48 -331 -8 -293 -10
-308 -63 -328 -19 -7 -25 -16 -22 -33 3 -22 4 -22 158 -18 85 2 158 5 163 8 4
2 7 15 7 29 0 16 -6 24 -17 24 -10 0 -27 12 -37 27 -18 25 -19 42 -13 383 6
302 5 359 -7 363 -8 3 -22 -3 -32 -14z"/>
<path d="M15365 8682 c-55 -51 -103 -115 -109 -144 -3 -18 -11 -28 -18 -26 -9
3 -14 34 -16 96 -3 94 -13 112 -42 77 -7 -8 -27 -15 -44 -15 -17 0 -44 -9 -61
-20 -16 -11 -45 -20 -62 -20 -30 0 -33 -3 -33 -30 0 -23 5 -30 19 -30 11 0 29
-12 41 -27 22 -28 22 -30 15 -308 -7 -311 -8 -317 -75 -339 -37 -11 -54 -49
-28 -59 23 -8 380 11 390 21 19 19 4 47 -25 47 -17 1 -40 14 -62 35 l-35 34 0
212 c0 176 3 214 15 224 8 7 15 20 15 30 0 9 10 29 23 43 19 22 31 27 70 27
26 0 47 -3 47 -7 1 -5 10 -19 21 -32 l20 -24 20 21 c11 12 24 22 29 22 5 0 12
11 16 25 3 13 12 29 20 36 25 21 17 77 -18 119 -42 51 -88 55 -133 12z"/>
<path d="M14405 8669 c-13 -11 -35 -19 -49 -19 -14 0 -29 -6 -33 -13 -4 -6
-27 -25 -50 -41 -24 -16 -43 -31 -43 -35 0 -3 -14 -21 -30 -40 -17 -18 -30
-42 -30 -51 0 -10 -7 -23 -15 -30 -8 -7 -15 -20 -15 -30 0 -10 -7 -34 -15 -53
-21 -50 -21 -245 0 -273 8 -10 15 -31 15 -46 0 -15 5 -30 10 -33 6 -4 21 -28
35 -55 24 -47 98 -110 130 -110 8 0 18 -7 23 -17 9 -14 25 -15 143 -9 102 5
135 10 142 21 4 8 15 15 23 15 17 0 90 76 129 134 13 19 28 51 35 72 7 22 19
53 26 69 9 19 15 70 17 135 2 91 -1 112 -21 160 -13 30 -26 64 -29 75 -2 12
-22 41 -44 65 -21 25 -39 48 -39 52 0 3 -12 11 -27 17 -16 6 -35 15 -43 19
-64 38 -83 43 -150 41 -52 -1 -77 -7 -95 -20z m119 -64 c3 -8 14 -15 24 -15
27 0 82 -121 82 -181 0 -25 7 -54 15 -65 20 -26 21 -213 1 -252 -7 -15 -16
-51 -19 -80 -5 -39 -14 -62 -39 -92 -32 -38 -35 -40 -95 -40 -59 0 -62 1 -90
38 -40 52 -63 106 -63 148 0 19 -7 46 -16 59 -13 20 -15 48 -13 154 3 87 8
134 17 143 6 6 12 26 12 43 0 18 8 41 18 52 9 12 32 39 51 62 29 35 40 41 72
41 24 0 39 -5 43 -15z"/>
<path d="M8228 8458 c-45 -47 -82 -95 -86 -113 -18 -69 -40 -7 -41 118 -1 75
-12 84 -58 47 -16 -12 -41 -20 -66 -20 -23 0 -48 -7 -58 -16 -10 -9 -39 -18
-66 -20 -68 -6 -75 -10 -71 -41 2 -23 9 -29 33 -31 16 -2 41 -16 54 -30 l25
-27 4 -328 4 -327 -28 -23 c-15 -12 -46 -24 -69 -27 -37 -5 -40 -7 -40 -37 0
-18 3 -33 8 -34 4 -1 120 2 257 6 227 7 252 9 260 26 13 23 13 25 -5 43 -10 9
-27 13 -48 10 -27 -4 -39 2 -77 37 l-45 41 -3 237 c-3 207 -2 239 12 250 9 8
16 23 16 35 0 11 14 36 31 54 26 28 36 32 82 32 48 0 55 -3 86 -39 l34 -38 44
41 c23 22 43 45 43 51 0 6 9 18 20 28 13 11 20 29 20 53 0 29 -8 44 -45 80
-42 40 -50 44 -97 44 -50 0 -51 0 -130 -82z"/>
<path d="M7048 8490 c-10 -15 -24 -20 -55 -20 -32 0 -45 -5 -53 -20 -6 -11
-23 -23 -38 -27 -31 -7 -142 -120 -142 -144 0 -9 -9 -28 -20 -42 -11 -14 -20
-37 -20 -51 0 -16 -8 -30 -21 -37 -21 -11 -22 -15 -16 -161 4 -116 9 -154 21
-167 9 -10 16 -27 16 -38 0 -11 11 -32 25 -47 14 -15 25 -31 25 -37 0 -11 5
-17 52 -71 20 -23 42 -38 55 -38 13 0 28 -9 35 -20 8 -12 24 -20 40 -20 15 0
31 -7 36 -16 11 -19 143 -26 272 -13 69 7 88 12 99 29 7 11 23 20 34 20 12 0
45 27 81 65 91 95 106 115 106 135 0 9 7 23 15 30 8 7 15 27 15 45 0 18 7 38
15 45 12 10 15 38 15 136 0 112 -2 126 -20 141 -12 11 -20 30 -20 48 0 18 -8
37 -20 48 -11 9 -20 25 -20 35 0 28 -117 142 -146 142 -13 0 -28 9 -34 20 -7
13 -21 20 -39 20 -16 0 -34 7 -41 15 -10 12 -37 15 -126 15 -103 0 -115 -2
-126 -20z m152 -70 c6 -12 21 -20 36 -20 19 0 29 -8 40 -32 16 -36 30 -61 57
-97 11 -15 17 -42 17 -75 0 -33 6 -60 17 -76 26 -36 32 -249 9 -285 -9 -14
-16 -45 -16 -73 0 -34 -6 -57 -20 -75 -11 -14 -20 -28 -20 -31 0 -3 -12 -17
-27 -32 -22 -22 -37 -27 -99 -31 l-72 -5 -51 49 c-30 29 -51 59 -51 71 0 12
-9 26 -20 32 -16 9 -20 21 -20 61 0 36 -6 58 -20 76 -18 23 -20 41 -20 178 0
127 3 154 15 159 10 3 15 19 15 44 0 40 8 53 87 138 34 37 43 42 85 43 38 1
49 -3 58 -19z"/>
<path d="M6447 8492 c-21 -2 -41 -10 -44 -18 -3 -8 -14 -14 -24 -14 -10 0 -30
-12 -43 -27 -14 -16 -44 -48 -66 -73 -23 -25 -44 -57 -47 -72 -6 -31 -27 -37
-37 -12 -3 9 -6 58 -6 110 0 105 -4 110 -62 74 -19 -11 -51 -20 -75 -20 -24 0
-48 -6 -57 -16 -9 -8 -43 -18 -78 -22 -62 -7 -63 -8 -63 -37 0 -26 4 -31 30
-35 17 -3 42 -15 56 -28 l26 -23 7 -340 8 -340 -29 -28 c-15 -16 -39 -31 -53
-33 -26 -3 -41 -41 -22 -60 11 -11 503 9 515 21 5 5 7 21 3 35 -6 23 -11 26
-51 26 -48 0 -69 15 -111 76 -20 29 -22 50 -29 263 -7 208 -6 231 9 237 9 4
16 17 16 33 0 16 12 40 28 58 22 25 37 32 87 37 l61 6 38 -41 37 -41 22 20
c12 11 31 22 42 24 14 2 21 13 23 33 2 16 12 35 23 43 13 9 19 25 19 53 0 33
-7 46 -43 82 -49 49 -58 53 -110 49z"/>
<path d="M5528 8451 c-7 -10 -22 -21 -33 -25 -26 -8 -85 -63 -85 -79 0 -7 -13
-28 -29 -47 -39 -47 -49 -34 -57 73 -7 85 -7 87 -33 87 -15 0 -31 -8 -39 -20
-10 -16 -23 -20 -71 -20 -45 0 -62 -4 -76 -20 -14 -16 -31 -20 -75 -20 -67 0
-101 -19 -84 -47 7 -12 26 -19 52 -21 22 -2 46 -10 53 -18 15 -18 28 -264 28
-540 l1 -190 -33 -33 c-19 -17 -38 -31 -43 -30 -31 5 -49 -17 -37 -47 6 -15
31 -16 262 -10 207 6 258 10 267 22 12 15 8 53 -5 55 -3 0 -19 2 -36 3 -52 6
-104 43 -109 79 -3 18 -7 145 -9 284 l-4 251 47 51 c44 48 49 51 97 51 35 0
53 -4 56 -15 4 -8 25 -24 48 -35 l42 -22 48 49 49 48 0 73 c0 68 -2 75 -30
102 -27 26 -38 30 -90 30 -46 0 -62 -4 -72 -19z"/>
<path d="M12400 8251 l-145 -6 -3 -59 c-2 -32 1 -63 6 -68 4 -4 92 -5 197 -2
220 8 228 12 223 92 l-3 47 -65 1 c-36 0 -130 -2 -210 -5z"/>
<path d="M18397 5343 c-13 -12 -7 -53 7 -53 17 0 28 24 20 45 -7 16 -17 19
-27 8z"/>
<path d="M17044 5230 c3 -16 9 -44 12 -60 8 -37 20 -46 40 -29 19 16 10 66
-19 97 -28 30 -40 28 -33 -8z"/>
<path d="M16675 5230 c-9 -14 -8 -15 36 -33 40 -17 63 -9 57 19 -2 14 -13 20
-45 22 -23 2 -44 -2 -48 -8z"/>
<path d="M17522 5228 c-28 -28 -5 -86 50 -124 21 -15 46 -40 56 -56 20 -35 26
-35 40 -3 16 35 -5 75 -53 104 -19 11 -45 36 -56 56 -24 40 -21 39 -37 23z"/>
<path d="M17976 5231 c-15 -23 -17 -101 -5 -137 l13 -39 7 45 c11 65 10 128 0
135 -5 3 -12 1 -15 -4z"/>
<path d="M14993 5190 c-18 -21 -33 -45 -33 -53 0 -8 -11 -31 -26 -52 -25 -37
-25 -37 -5 -52 19 -13 21 -24 21 -149 0 -138 5 -159 43 -201 27 -30 72 -30 88
-2 9 17 7 23 -10 36 -20 13 -21 23 -21 162 0 158 2 166 50 173 17 2 26 10 28
26 3 19 -1 22 -27 22 -37 0 -51 22 -51 84 0 57 -14 59 -57 6z"/>
<path d="M16320 5196 c-10 -13 -10 -16 1 -20 8 -2 33 -9 57 -17 50 -15 75 -2
56 29 -15 23 -96 29 -114 8z"/>
<path d="M17214 5185 c-10 -39 15 -85 61 -114 24 -15 54 -40 67 -56 28 -33 48
-27 48 14 0 36 -32 76 -80 101 -21 11 -47 33 -57 50 -21 37 -31 38 -39 5z"/>
<path d="M13635 5170 c-51 -20 -61 -62 -26 -102 l28 -32 32 34 c32 36 40 77
19 98 -14 14 -24 14 -53 2z"/>
<path d="M15932 5168 c-9 -9 -4 -19 23 -44 38 -35 43 -60 20 -105 -14 -27 -14
-32 0 -51 18 -26 20 -82 4 -127 -9 -27 -8 -35 6 -51 10 -11 28 -20 40 -20 27
0 60 34 51 52 -4 7 -13 24 -21 37 -10 18 -12 51 -8 135 l6 112 -33 37 c-33 38
-66 47 -88 25z"/>
<path d="M16889 5168 c-9 -7 -23 -40 -32 -74 -14 -52 -14 -67 -3 -111 24 -89
72 -132 135 -118 59 13 60 44 1 58 -61 15 -95 79 -78 148 6 23 7 53 2 74 -8
31 -11 34 -25 23z"/>
<path d="M15385 5119 c-4 -6 1 -20 12 -32 39 -45 53 -94 53 -185 0 -83 -2 -91
-35 -142 -27 -44 -31 -56 -18 -58 22 -5 77 52 112 118 24 45 31 70 31 114 0
68 -38 152 -74 166 -13 5 -27 14 -31 19 -8 14 -42 14 -50 0z"/>
<path d="M16548 5118 c-9 -7 -24 -39 -33 -71 -16 -55 -16 -62 0 -105 10 -26
31 -62 48 -79 26 -27 38 -33 74 -33 30 0 49 6 63 20 25 25 18 40 -19 40 -31 0
-74 29 -94 63 -6 12 -14 57 -17 100 -5 71 -6 77 -22 65z"/>
<path d="M15263 5075 c-80 -84 -112 -184 -83 -260 16 -42 100 -125 126 -125
30 0 38 14 18 31 -36 30 -54 97 -54 199 0 65 4 103 13 112 27 30 56 76 50 82
-13 13 -28 5 -70 -39z"/>
<path d="M15816 5088 c-18 -25 -4 -61 22 -56 23 4 31 78 8 78 -8 0 -22 -10
-30 -22z"/>
<path d="M12697 5093 c-36 -6 -49 -38 -36 -87 21 -77 91 -43 86 43 -2 47 -6
50 -50 44z"/>
<path d="M16193 5081 c-17 -27 -27 -112 -19 -166 6 -34 17 -56 46 -87 37 -39
42 -40 86 -35 48 5 92 36 80 56 -4 6 -24 11 -45 11 -32 0 -45 7 -75 40 -35 39
-36 42 -36 120 0 83 -12 102 -37 61z"/>
<path d="M14477 5036 c-8 -20 -80 -53 -84 -39 -2 5 -9 18 -16 27 -12 16 -14
16 -38 -2 -13 -11 -36 -22 -49 -24 -25 -3 -31 -23 -7 -23 9 0 13 -40 15 -162
l2 -162 -26 -26 c-38 -38 -21 -48 66 -39 81 8 93 19 61 60 -19 24 -21 40 -21
151 l0 125 37 34 c43 40 68 43 94 12 16 -20 18 -41 18 -158 0 -96 -4 -142 -14
-160 -21 -38 -5 -48 66 -39 68 8 85 22 63 53 -10 15 -14 54 -14 151 0 120 -2
136 -25 183 l-25 52 -49 0 c-33 0 -51 -5 -54 -14z"/>
<path d="M13983 5003 c-30 -3 -46 -10 -53 -24 -6 -10 -18 -19 -28 -19 -23 -1
-82 -81 -82 -113 0 -14 -4 -37 -10 -52 -6 -16 -7 -49 -1 -90 7 -51 16 -71 42
-99 18 -20 40 -36 49 -36 9 0 21 -5 27 -11 13 -13 133 -2 133 12 0 5 12 14 27
20 28 10 45 30 75 86 14 25 18 56 18 130 0 87 -2 99 -25 128 -24 33 -95 76
-118 73 -7 -1 -31 -3 -54 -5z m59 -62 c31 -33 35 -45 37 -95 0 -32 3 -61 5
-65 3 -4 -1 -41 -7 -82 -12 -75 -41 -129 -68 -129 -24 0 -88 83 -89 116 0 16
-5 35 -11 41 -12 12 -7 107 8 164 12 43 50 89 74 89 9 0 32 -17 51 -39z"/>
<path d="M13645 4960 c-10 -11 -28 -20 -39 -20 -12 0 -27 -4 -35 -9 -12 -8
-10 -16 12 -45 26 -33 27 -40 27 -160 0 -118 -1 -126 -25 -154 -14 -17 -25
-38 -25 -47 0 -15 9 -16 83 -10 45 4 85 9 90 12 15 9 6 31 -18 47 -25 16 -25
16 -27 208 -2 125 -7 193 -14 195 -6 2 -19 -6 -29 -17z"/>
<path d="M13375 4948 c-66 -7 -72 -10 -107 -50 -33 -38 -38 -49 -38 -93 0 -46
4 -55 38 -88 21 -20 45 -37 53 -37 25 0 82 -66 82 -95 0 -30 -38 -75 -63 -75
-21 0 -76 57 -89 93 -12 31 -38 32 -33 1 16 -114 30 -129 109 -119 37 4 65 14
76 26 10 10 24 19 32 19 19 0 55 71 55 109 0 44 -55 107 -124 141 -42 21 -61
57 -52 103 6 34 10 37 40 37 36 0 86 -43 86 -74 0 -9 5 -14 10 -11 12 7 14
112 3 118 -5 2 -39 0 -78 -5z"/>
<path d="M15820 4920 c-30 -30 -28 -119 3 -147 29 -27 48 -32 70 -21 23 12 22
25 -9 61 -26 31 -27 47 -9 105 6 18 4 22 -14 22 -11 0 -30 -9 -41 -20z"/>
<path d="M12980 4913 c-29 -12 -80 -56 -80 -70 0 -7 -7 -25 -16 -38 -10 -16
-14 -34 -9 -53 8 -37 62 -102 85 -102 9 0 23 -6 30 -14 6 -8 21 -16 33 -18 19
-3 22 -10 25 -56 4 -62 -8 -82 -49 -82 -32 0 -95 56 -101 90 -6 41 -23 24 -26
-27 -4 -72 17 -93 96 -93 71 0 97 13 139 68 28 37 33 52 33 96 0 63 -27 106
-66 106 -14 0 -27 7 -30 15 -4 8 -16 15 -28 15 -27 0 -56 33 -56 64 0 27 39
76 61 76 9 0 35 -21 57 -46 59 -64 83 -44 41 36 -21 39 -22 40 -73 39 -28 0
-58 -3 -66 -6z"/>
<path d="M12696 4871 c-10 -11 -32 -21 -49 -23 -37 -4 -48 -25 -15 -30 23 -3
23 -4 26 -164 2 -160 2 -160 -23 -184 -14 -13 -25 -32 -25 -42 0 -15 6 -17 38
-13 20 2 63 7 95 10 46 5 57 10 57 25 0 10 -11 25 -25 34 l-25 16 -2 192 c-3
165 -5 193 -19 196 -8 1 -23 -6 -33 -17z"/>
<path d="M12328 4840 c-7 -11 -18 -20 -25 -20 -7 0 -22 -9 -33 -20 l-20 -20
-30 30 c-24 25 -37 30 -74 30 -32 0 -49 -5 -58 -18 -7 -11 -24 -25 -37 -31
-19 -11 -25 -11 -32 0 -5 8 -9 17 -9 22 0 16 -58 6 -75 -13 -10 -11 -29 -20
-42 -20 -26 0 -32 -24 -8 -34 12 -4 15 -32 15 -165 l0 -160 -31 -29 c-53 -50
-37 -60 72 -48 77 9 94 14 97 29 2 10 -2 25 -10 34 -9 11 -14 59 -16 153 l-4
138 28 36 c34 42 52 45 82 13 21 -22 22 -33 22 -175 0 -90 -4 -153 -10 -157
-5 -3 -10 -18 -10 -31 0 -22 3 -25 28 -20 15 2 53 8 85 11 61 7 71 20 42 59
-12 15 -15 52 -15 157 0 133 1 138 26 168 31 37 53 39 82 8 20 -22 22 -33 22
-163 0 -108 -3 -145 -15 -160 -8 -10 -15 -27 -15 -38 0 -17 6 -18 83 -11 45 4
85 9 90 12 14 8 7 40 -13 58 -19 17 -21 30 -19 160 1 146 -2 162 -45 213 -27
30 -110 32 -128 2z"/>
<path d="M11755 4802 c-29 -4 -75 -43 -75 -63 0 -24 -35 -2 -38 24 -3 21 -9
27 -26 27 -13 0 -29 -7 -36 -15 -7 -8 -30 -20 -51 -25 -41 -11 -50 -24 -24
-34 13 -4 15 -33 15 -174 l0 -168 -30 -29 c-16 -16 -30 -33 -30 -38 0 -6 32
-7 83 -3 170 14 182 21 126 70 l-31 28 4 128 c3 118 5 131 25 149 27 25 41 26
65 4 17 -15 20 -15 43 7 19 18 25 34 25 66 0 48 -3 51 -45 46z"/>
<path d="M8509 4782 c-11 -15 -31 -21 -91 -26 -88 -9 -94 -17 -46 -60 l32 -28
4 -296 4 -297 -31 -29 c-51 -49 -43 -60 42 -52 147 13 157 16 157 41 0 12 -6
28 -14 34 -15 13 -32 277 -21 323 9 36 65 65 102 53 39 -14 63 -100 63 -226 0
-86 -3 -100 -25 -133 -28 -42 -32 -66 -10 -66 61 0 215 25 215 35 0 6 -16 25
-35 42 l-35 31 0 154 0 153 -41 47 -41 48 -55 -7 c-35 -4 -63 -13 -75 -25 -11
-11 -29 -18 -41 -16 -21 3 -22 7 -25 153 -1 82 -6 153 -11 158 -5 5 -15 0 -22
-11z"/>
<path d="M11205 4751 c-29 -12 -125 -126 -125 -149 0 -11 -7 -25 -15 -32 -11
-9 -15 -33 -15 -90 0 -57 4 -81 15 -90 8 -7 15 -20 15 -29 0 -20 40 -61 60
-61 7 0 21 -7 31 -16 24 -21 110 -11 135 17 9 10 24 19 31 19 22 0 52 42 53
73 0 32 -12 35 -31 8 -10 -14 -31 -20 -77 -24 -58 -5 -65 -3 -87 21 -14 15
-25 36 -25 48 0 12 -7 27 -15 34 -8 7 -15 23 -15 35 0 28 13 32 140 41 52 4
105 11 118 15 42 16 21 90 -44 155 -30 29 -41 34 -82 33 -26 0 -56 -4 -67 -8z
m69 -46 c21 -19 26 -33 26 -69 0 -52 -14 -60 -86 -54 -38 3 -39 4 -42 43 -2
33 3 46 27 73 36 38 41 39 75 7z"/>
<path d="M7556 4689 c-35 -41 -33 -55 13 -79 46 -23 52 -31 53 -69 1 -20 -9
-38 -31 -60 -39 -38 -39 -51 -1 -51 17 0 30 4 30 9 0 5 18 28 40 51 35 38 40
48 39 89 -2 83 -11 106 -42 109 -16 2 -31 10 -34 18 -9 23 -40 16 -67 -17z"/>
<path d="M10756 4695 c-15 -14 -34 -25 -42 -25 -7 0 -14 -7 -14 -16 0 -14 7
-15 37 -11 35 6 40 3 81 -41 l44 -47 -4 -101 c-2 -76 -7 -105 -20 -117 -9 -9
-18 -21 -20 -27 -1 -5 -25 -14 -52 -19 -43 -8 -53 -6 -78 12 l-28 21 0 134 c0
117 2 137 18 148 16 12 16 14 0 26 -9 7 -18 24 -20 38 -4 33 -39 38 -76 12
-15 -11 -38 -22 -52 -23 -27 -4 -35 -33 -10 -35 8 -1 21 -2 28 -3 9 -1 12 -67
12 -292 l0 -292 -31 -29 c-48 -46 -30 -53 105 -38 101 11 116 15 116 30 0 12
-15 25 -40 36 -47 21 -52 35 -48 119 l3 60 52 5 c37 4 59 12 73 28 11 12 27
22 34 22 8 0 34 24 58 53 23 28 49 58 55 65 7 7 13 24 13 38 0 14 7 27 15 30
11 5 15 22 15 64 0 39 -5 62 -15 70 -8 7 -15 21 -15 31 0 10 -18 36 -40 59
-34 35 -45 40 -83 40 -33 0 -51 -6 -71 -25z"/>
<path d="M10005 4628 c-8 -13 -20 -24 -25 -24 -6 -1 -17 -2 -25 -3 -8 0 -15
-8 -15 -16 0 -8 -5 -15 -10 -15 -10 0 -15 -9 -36 -65 -22 -59 -30 -137 -20
-196 10 -54 17 -66 63 -109 l53 -49 67 6 c67 6 68 7 125 67 32 33 57 65 55 70
-6 19 -25 17 -31 -2 -6 -16 -20 -21 -80 -27 -84 -7 -99 -2 -133 52 -28 42 -30
98 -5 111 9 5 62 13 117 16 130 10 139 15 133 75 -8 86 -63 131 -158 131 -50
0 -61 -4 -75 -22z m76 -18 c10 -6 19 -17 19 -24 0 -7 9 -21 20 -31 25 -22 26
-61 3 -73 -10 -5 -46 -12 -80 -14 -47 -3 -64 -1 -68 10 -9 25 -5 39 21 68 14
16 32 39 41 52 18 25 18 25 44 12z"/>
<path d="M9808 4625 c-2 -2 -34 -5 -72 -7 -38 -1 -75 -8 -84 -14 -13 -9 -11
-14 16 -29 17 -10 33 -28 36 -39 6 -22 -2 -64 -14 -81 -4 -5 -10 -26 -14 -46
-4 -21 -13 -42 -21 -49 -8 -7 -15 -25 -15 -41 0 -18 -5 -29 -14 -29 -16 0 -26
21 -26 53 0 12 -7 31 -15 41 -8 11 -15 30 -15 42 0 12 -7 27 -15 34 -20 16
-19 69 1 91 9 11 14 25 10 35 -6 14 -16 16 -74 10 -37 -3 -80 -6 -97 -6 -63
-1 -64 -16 -7 -70 34 -33 52 -58 52 -74 0 -13 6 -26 14 -29 7 -3 16 -25 19
-48 3 -24 10 -45 16 -47 6 -2 13 -19 17 -39 4 -19 13 -37 20 -40 8 -3 14 -20
14 -42 1 -24 9 -45 25 -64 l25 -28 25 28 c13 15 25 40 25 55 0 15 7 33 15 42
8 8 15 28 15 43 0 16 7 38 15 49 8 10 15 26 15 35 0 9 9 28 20 42 11 14 20 40
20 58 0 29 33 80 87 137 7 7 13 15 13 17 0 5 -28 14 -32 10z"/>
<path d="M6230 4580 c-9 -16 -21 -20 -68 -21 -71 -2 -114 -11 -119 -25 -2 -6
15 -23 37 -39 l40 -28 0 -83 c0 -46 -5 -86 -10 -89 -6 -4 -36 -9 -67 -12 -55
-6 -90 -23 -157 -75 -47 -37 -66 -57 -66 -71 0 -7 -10 -21 -21 -31 -21 -17
-22 -24 -15 -130 7 -123 1 -111 98 -190 46 -37 50 -38 105 -33 44 4 61 11 72
26 16 25 66 29 75 6 8 -22 55 -18 75 6 12 15 33 23 76 28 47 5 61 10 63 24 3
15 -2 18 -29 15 -28 -3 -33 1 -39 23 -4 15 -11 180 -15 368 -4 188 -11 344
-16 346 -4 3 -13 -4 -19 -15z m-135 -356 c19 -12 23 -26 29 -106 3 -50 6 -122
6 -160 0 -62 -3 -73 -27 -99 -26 -27 -83 -41 -83 -20 0 4 -18 21 -40 36 -29
20 -40 35 -40 54 0 15 -8 31 -20 39 -16 10 -20 23 -20 71 0 40 5 63 15 71 8 7
15 25 15 41 0 29 22 59 44 59 7 0 21 9 32 21 20 22 48 20 89 -7z"/>
<path d="M7906 4581 c-10 -11 -28 -21 -40 -23 -18 -3 -22 -11 -26 -58 -4 -47
-8 -55 -27 -58 -51 -7 -56 -75 -5 -70 l27 3 9 -195 c9 -192 9 -195 35 -215 34
-27 118 -23 141 6 14 17 31 25 63 28 4 1 7 8 7 17 0 14 -7 15 -44 10 -40 -6
-46 -4 -70 25 -26 31 -27 32 -24 182 l3 151 44 8 c46 8 61 20 61 51 0 14 -9
17 -54 17 -62 0 -66 5 -66 86 0 58 -7 65 -34 35z"/>
<path d="M9114 4559 c-17 -5 -37 -16 -44 -24 -7 -8 -20 -15 -29 -15 -23 -1
-79 -52 -81 -75 -6 -54 -1 -65 30 -65 20 0 32 6 36 18 16 50 71 122 94 122 21
0 50 -54 50 -96 0 -57 -8 -74 -35 -74 -13 0 -37 -11 -53 -25 -17 -14 -38 -25
-48 -25 -26 0 -104 -90 -104 -120 0 -27 21 -63 59 -102 21 -22 31 -25 65 -21
23 3 50 14 62 24 11 11 26 19 33 19 7 0 11 8 9 18 -2 10 -11 16 -21 14 -10 -2
-31 10 -47 25 -37 35 -42 95 -10 115 11 7 20 18 20 24 0 18 51 28 61 12 5 -7
9 -46 9 -86 0 -53 4 -74 14 -78 8 -3 16 -18 20 -35 5 -27 9 -29 50 -29 35 0
46 4 51 19 3 11 15 21 27 23 27 4 43 30 34 54 -7 18 -8 18 -24 -4 -33 -43 -42
-11 -42 144 0 111 -3 144 -14 153 -8 7 -17 24 -21 39 -4 18 -18 33 -41 45 -38
19 -62 20 -110 6z"/>
<path d="M7260 4393 c-19 -8 -60 -51 -60 -64 0 -5 23 -9 50 -9 28 0 50 -4 50
-10 0 -5 9 -17 19 -27 18 -17 20 -34 22 -167 l2 -148 -32 -28 c-17 -16 -31
-36 -31 -46 0 -14 7 -16 38 -11 20 3 72 9 115 13 84 7 108 24 71 51 -56 40
-54 32 -54 203 l0 160 -41 45 c-38 41 -45 45 -88 44 -25 0 -53 -3 -61 -6z"/>
<path d="M7079 4361 c-13 -19 -38 -28 -81 -30 -22 -1 -24 -27 -3 -34 8 -4 23
-24 35 -46 17 -34 20 -59 20 -163 0 -123 0 -124 -31 -161 -29 -35 -36 -72 -14
-72 64 2 191 19 196 27 10 16 -2 48 -22 59 -17 9 -19 23 -19 170 0 133 3 161
15 165 19 8 19 30 1 37 -8 3 -16 18 -18 34 -2 23 -8 29 -34 31 -22 2 -35 -3
-45 -17z"/>
<path d="M4269 4356 c-2 -2 -47 -6 -99 -10 -52 -4 -99 -11 -103 -15 -14 -14 1
-30 23 -24 32 8 50 -15 50 -63 0 -33 -5 -47 -20 -56 -13 -8 -20 -24 -20 -43 0
-19 -7 -35 -20 -43 -13 -8 -20 -23 -20 -42 0 -19 -7 -33 -20 -40 -11 -6 -20
-17 -20 -25 0 -8 -9 -15 -20 -15 -16 0 -20 7 -20 34 0 25 -5 35 -20 39 -15 4
-20 14 -20 37 0 23 -5 33 -19 37 -11 3 -22 17 -26 31 -4 15 -15 35 -26 45 -10
10 -19 26 -19 37 0 24 26 50 50 50 25 0 35 19 14 27 -19 7 -302 -15 -323 -26
-23 -11 -13 -26 18 -27 35 -1 131 -90 131 -121 0 -12 8 -23 20 -26 15 -4 20
-14 20 -37 0 -23 5 -33 20 -37 11 -3 20 -13 20 -23 0 -29 11 -50 26 -50 8 0
14 -9 14 -20 0 -11 10 -30 23 -42 20 -21 22 -34 26 -146 3 -132 0 -143 -45
-148 -35 -4 -66 -33 -62 -58 2 -16 9 -20 28 -18 14 1 90 9 169 16 79 8 148 19
153 24 19 19 -2 51 -37 58 -18 3 -37 13 -41 22 -3 10 -9 85 -12 168 -4 147 -4
152 17 163 14 8 21 21 21 41 0 19 7 33 20 40 11 6 20 19 20 29 0 10 9 28 20
41 11 13 20 28 20 34 0 6 9 19 20 29 11 9 20 28 20 42 0 18 8 29 33 39 43 20
80 53 72 66 -6 9 -47 14 -56 6z"/>
<path d="M6695 4343 c-140 -14 -130 -10 -205 -83 -38 -38 -70 -75 -70 -83 0
-8 -7 -20 -15 -27 -11 -9 -15 -34 -15 -96 0 -72 3 -87 20 -101 11 -10 20 -23
20 -30 0 -13 81 -83 97 -83 6 0 16 -7 23 -15 10 -12 27 -14 84 -9 39 4 83 13
99 21 44 22 137 122 137 148 0 12 7 28 15 35 21 17 22 168 1 176 -8 3 -17 15
-20 27 -8 31 -64 87 -87 87 -10 0 -19 4 -19 10 0 15 -32 26 -65 23z m25 -112
c0 -11 9 -25 20 -31 18 -10 20 -21 20 -135 0 -114 -2 -125 -20 -135 -11 -6
-20 -17 -20 -24 0 -21 -44 -55 -70 -53 -31 2 -70 38 -70 64 0 12 -9 27 -19 34
-16 12 -20 32 -25 130 -6 104 -5 119 11 135 10 9 28 31 41 48 32 44 70 49 105
15 15 -15 27 -37 27 -48z"/>
<path d="M5232 4189 c-67 -31 -78 -56 -25 -52 40 4 43 -7 43 -187 -1 -135 -2
-147 -23 -171 -24 -29 -81 -47 -92 -29 -3 5 -10 8 -15 5 -5 -3 -16 7 -24 22
-8 15 -18 27 -23 25 -10 -3 -20 109 -22 253 -1 61 -5 116 -10 123 -12 20 -66
10 -126 -22 -55 -30 -66 -53 -23 -48 42 5 48 -20 48 -200 l0 -163 47 -42 c50
-45 68 -49 145 -37 24 4 40 13 43 25 4 11 12 19 20 19 7 0 15 9 18 21 9 33 41
20 45 -19 3 -26 8 -32 26 -32 13 0 35 11 50 25 18 16 39 25 61 25 38 0 55 17
34 34 -8 7 -25 24 -39 40 -24 27 -25 32 -30 219 l-5 192 -30 2 c-17 1 -58 -11
-93 -28z"/>
<path d="M4477 4143 c-34 -3 -50 -9 -54 -21 -8 -22 -23 -32 -48 -32 -17 0 -75
-58 -75 -75 0 -3 -9 -18 -19 -33 -19 -27 -20 -33 -13 -200 2 -49 6 -57 52
-102 37 -38 56 -50 80 -50 18 0 33 -6 37 -16 5 -13 19 -14 87 -9 68 6 84 11
103 31 12 13 33 24 48 24 14 0 25 4 25 9 0 5 7 17 16 26 9 9 27 32 40 51 22
32 24 45 24 161 0 122 -1 126 -26 149 -14 13 -29 24 -33 24 -5 0 -15 9 -22 20
-8 11 -27 21 -43 22 -15 2 -31 8 -33 15 -5 13 -38 14 -146 6z m103 -72 c31
-30 40 -46 40 -72 0 -19 9 -51 20 -72 24 -44 26 -95 5 -123 -8 -10 -15 -37
-15 -59 0 -48 -46 -105 -86 -105 -13 0 -24 4 -24 8 0 5 -20 23 -45 42 -39 29
-45 39 -45 70 0 19 -9 52 -20 73 -24 44 -26 100 -5 117 9 8 15 29 15 56 0 33
5 46 20 54 11 6 20 17 20 25 0 16 15 23 52 24 20 1 40 -11 68 -38z"/>
</g>
</svg>
